# xmcd
#
# Track frame offsets: 
#        150
#        5910
#        8948
#        16023
#        28008
#        33930
#        46965
#        58495
#        70435
#        81873
#        93253
#        97088
#        104545
#        117165
#        118575
#        129658
#        137800
#        143285
#        155140
#        164750
#
# Disc length: 2308 seconds
#
# Revision: 1
# Processed by: cddbd v1.4PL0 Copyright (c) Steve Scherf et al.
# Submitted via: ExactAudioCopy v0.90b4
#
DISCID=19090214
DTITLE=Pig Meat - Pig Meat
DYEAR=1989
DGENRE=
TTITLE0=Little 'S'
TTITLE1=Yellow Gal
TTITLE2=Hank Blues
TTITLE3=I Saw The Light
TTITLE4=Funtime For Freddy
TTITLE5=A Picture From Life's Other Side
TTITLE6=Folsom Prison Blues
TTITLE7=Days Like This
TTITLE8=Pretty Girl
TTITLE9=Party - Line
TTITLE10=Horseride To Alaska
TTITLE11=Yonder Comes A Sucker
TTITLE12=More Pretty Girls Than One
TTITLE13=Beike
TTITLE14=Hog - Tied
TTITLE15=Mother Nature Show
TTITLE16=Igor Strikes Back
TTITLE17=I've Eaten My Jelly-Fish and Now I Wanna Drink
TTITLE18=Nothing In The World
TTITLE19=Have A Drink On Me
EXTD=
EXTT0=
EXTT1=
EXTT2=
EXTT3=
EXTT4=
EXTT5=
EXTT6=
EXTT7=
EXTT8=
EXTT9=
EXTT10=
EXTT11=
EXTT12=
EXTT13=
EXTT14=
EXTT15=
EXTT16=
EXTT17=
EXTT18=
EXTT19=
PLAYORDER=
